HIERARCHY
ROOT joint_Root
{
	OFFSET 0.0 0.0 0.0
	CHANNELS 6 Xposition Yposition Zposition Zrotation Xrotation Yrotation 
	JOINT Hips
	{
		OFFSET 4.5925 91.4895 -427.239
		CHANNELS 6 Xposition Yposition Zposition Zrotation Xrotation Yrotation 
		JOINT Spine
		{
			OFFSET 15.7357 0.0 0.0
			CHANNELS 6 Xposition Yposition Zposition Zrotation Xrotation Yrotation 
			JOINT Chest
			{
				OFFSET 8.98455 -0.406207 0.0
				CHANNELS 6 Xposition Yposition Zposition Zrotation Xrotation Yrotation 
				JOINT Neck
				{
					OFFSET 16.3773 0.0 0.0
					CHANNELS 6 Xposition Yposition Zposition Zrotation Xrotation Yrotation 
					JOINT Head
					{
						OFFSET 6.45672 0.0 0.0
						CHANNELS 6 Xposition Yposition Zposition Zrotation Xrotation Yrotation 
						End Site
						{
							OFFSET 0.0 0.0 0.0
						}
					}
				}
				JOINT Shoulder_L
				{
					OFFSET 12.9942 -0.242716 4.98039
					CHANNELS 6 Xposition Yposition Zposition Zrotation Xrotation Yrotation 
					JOINT UpperArm_L
					{
						OFFSET 5.34809 0.0 0.0
						CHANNELS 6 Xposition Yposition Zposition Zrotation Xrotation Yrotation 
						JOINT LowerArm_L
						{
							OFFSET 24.3286 1.87007e-05 0.0
							CHANNELS 6 Xposition Yposition Zposition Zrotation Xrotation Yrotation 
							JOINT Hand_L
							{
								OFFSET 22.2916 0.0 0.0
								CHANNELS 6 Xposition Yposition Zposition Zrotation Xrotation Yrotation 
								End Site
								{
									OFFSET 0.0 0.0 0.0
								}
							}
						}
					}
				}
				JOINT Shoulder_R
				{
					OFFSET 12.9945 -0.242716 -4.98039
					CHANNELS 6 Xposition Yposition Zposition Zrotation Xrotation Yrotation 
					JOINT UpperArm_R
					{
						OFFSET -5.34813 0.0 0.0
						CHANNELS 6 Xposition Yposition Zposition Zrotation Xrotation Yrotation 
						JOINT LowerArm_R
						{
							OFFSET -24.3289 0.000322201 0.0
							CHANNELS 6 Xposition Yposition Zposition Zrotation Xrotation Yrotation 
							JOINT Hand_R
							{
								OFFSET -22.2915 -0.000108084 0.0
								CHANNELS 6 Xposition Yposition Zposition Zrotation Xrotation Yrotation 
								End Site
								{
									OFFSET 0.0 0.0 0.0
								}
							}
						}
					}
				}
			}
		}
		JOINT UpperLeg_L
		{
			OFFSET -2.19248 -6.46944 0.0
			CHANNELS 6 Xposition Yposition Zposition Zrotation Xrotation Yrotation 
			JOINT LowerLeg_L
			{
				OFFSET 39.0811 0.0 -1.23785e-05
				CHANNELS 6 Xposition Yposition Zposition Zrotation Xrotation Yrotation 
				JOINT Foot_L
				{
					OFFSET 40.9854 0.0 -1.26872e-05
					CHANNELS 6 Xposition Yposition Zposition Zrotation Xrotation Yrotation 
					JOINT Toes_L
					{
						OFFSET 11.7543 0.0 0.0
						CHANNELS 6 Xposition Yposition Zposition Zrotation Xrotation Yrotation 
						End Site
						{
							OFFSET 0.0 0.0 0.0
						}
					}
				}
			}
		}
		JOINT UpperLeg_R
		{
			OFFSET -2.19251 6.46944 0.0
			CHANNELS 6 Xposition Yposition Zposition Zrotation Xrotation Yrotation 
			JOINT LowerLeg_R
			{
				OFFSET -39.0811 -0.00228153 -0.0401928
				CHANNELS 6 Xposition Yposition Zposition Zrotation Xrotation Yrotation 
				JOINT Foot_R
				{
					OFFSET -40.9854 0.0 0.0
					CHANNELS 6 Xposition Yposition Zposition Zrotation Xrotation Yrotation 
					JOINT Toes_R
					{
						OFFSET -11.7543 0.0 0.0
						CHANNELS 6 Xposition Yposition Zposition Zrotation Xrotation Yrotation 
						End Site
						{
							OFFSET 0.0 0.0 0.0
						}
					}
				}
			}
		}
	}
}
MOTION
Frames:	8
Frame Time:	0.0333333
0.000000 0.000000 0.000000 0.000000 0.000000 -0.000000 -3.531600 90.429800 2.633610 91.192300 4.458610 12.842600 15.735700 0.000005 -0.000001 76.860000 82.590800 -75.780200 8.984550 -0.406207 -0.000000 6.706020 -3.367970 2.354960 16.377300 -0.000001 -0.000001 28.015400 -8.928810 -4.825320 6.456720 -0.000001 -0.000000 17.800800 -11.152000 -7.045320 12.994200 -0.242716 4.980390 -87.026000 -7.156390 -67.362200 5.348090 -0.000007 -0.000001 -23.978600 -31.004500 -97.344500 24.328600 0.000019 0.000005 19.570300 13.887100 -55.975500 22.291600 -0.000001 0.000005 18.192900 5.357100 -1.591410 12.994500 -0.242716 -4.980390 88.658800 7.705010 -80.094600 -5.348130 -0.000001 -0.000004 -64.750300 37.692900 -11.566100 -24.328900 0.000322 -0.000009 1.149510 2.960650 -21.248400 -22.291500 -0.000108 -0.000004 12.805000 5.401600 -2.989630 -2.192480 -6.469440 -0.000000 -174.419000 -6.729950 4.007030 39.081100 -0.000007 -0.000012 -0.192114 0.334347 29.881700 40.985400 -0.000006 -0.000013 -1.237500 8.444570 -70.919200 11.754300 -0.000000 0.000003 -0.000060 -0.000663 -16.603200 -2.192510 6.469440 -0.000001 171.752000 23.082600 -172.622000 -39.081100 -0.002282 -0.040193 -0.201930 0.349195 30.444100 -40.985400 0.000008 0.000006 3.403170 8.525900 -74.006000 -11.754300 -0.000006 -0.000006 -0.002772 -0.037992 -18.118100
0.000000 0.000000 0.000000 0.000000 0.000000 -0.000000 -3.571960 90.404400 2.842220 91.072100 3.161170 12.876600 15.735700 0.000005 -0.000001 76.461000 82.588100 -75.339300 8.984550 -0.406207 -0.000000 6.690310 -3.469910 2.444290 16.377300 -0.000001 -0.000001 28.036800 -9.200950 -4.584400 6.456720 -0.000001 -0.000000 17.759100 -11.364900 -6.869850 12.994200 -0.242716 4.980390 -87.160700 -6.851660 -67.426300 5.348090 -0.000007 -0.000001 -23.002600 -31.756700 -94.462800 24.328600 0.000019 0.000005 19.109400 14.436800 -54.261300 22.291600 -0.000001 0.000005 17.973300 5.356290 -1.566770 12.994500 -0.242716 -4.980390 88.626600 7.679160 -79.828000 -5.348130 -0.000001 -0.000004 -64.938200 37.245600 -10.753100 -24.328900 0.000322 -0.000009 1.216480 3.268290 -20.446100 -22.291500 -0.000108 -0.000004 12.825200 5.401750 -2.994350 -2.192480 -6.469440 -0.000000 -174.036000 -7.564820 4.426870 39.081100 -0.000007 -0.000012 -0.195778 0.341243 29.844100 40.985400 -0.000006 -0.000013 -1.381680 8.106740 -71.167900 11.754300 -0.000000 0.000003 -0.000067 -0.000728 -16.605700 -2.192510 6.469440 -0.000001 172.047000 22.287600 -172.648000 -39.081100 -0.002282 -0.040193 -0.205610 0.355486 30.442000 -40.985400 0.000008 0.000006 3.556180 8.951030 -74.098100 -11.754300 -0.000006 -0.000006 -0.002986 -0.040443 -18.217900
0.000000 0.000000 0.000000 0.000000 0.000000 -0.000000 -3.624470 90.376900 3.027190 90.932200 1.944050 12.852000 15.735700 0.000005 -0.000001 75.589900 82.571100 -74.430700 8.984550 -0.406207 -0.000000 6.673580 -3.696940 2.532080 16.377300 -0.000001 -0.000001 27.911100 -9.420170 -4.349820 6.456720 -0.000001 -0.000000 17.965300 -11.577400 -6.617370 12.994200 -0.242716 4.980390 -87.291500 -6.556940 -67.496700 5.348090 -0.000007 -0.000001 -21.696400 -32.795600 -90.867500 24.328600 0.000019 0.000005 18.291200 14.718800 -52.452400 22.291600 -0.000001 0.000005 17.834900 5.354400 -1.509330 12.994500 -0.242716 -4.980390 88.595200 7.693500 -79.619200 -5.348130 -0.000001 -0.000004 -64.957500 36.441800 -10.132300 -24.328900 0.000322 -0.000009 1.240830 3.543950 -19.326900 -22.291500 -0.000108 -0.000004 12.749200 5.398140 -2.876720 -2.192480 -6.469440 -0.000000 -173.657000 -8.310960 4.740840 39.081100 -0.000007 -0.000012 -0.201510 0.351242 29.843500 40.985400 -0.000006 -0.000013 -1.538800 7.752860 -71.406700 11.754300 -0.000000 0.000003 -0.000063 -0.000695 -16.604400 -2.192510 6.469440 -0.000001 172.379000 21.606900 -172.760000 -39.081100 -0.002282 -0.040193 -0.204970 0.354033 30.467700 -40.985400 0.000008 0.000006 3.719200 9.346930 -74.182100 -11.754300 -0.000006 -0.000006 -0.002880 -0.039235 -18.168700
0.000000 0.000000 0.000000 0.000000 0.000000 -0.000000 -3.680400 90.347800 3.208290 90.794500 0.626181 12.819200 15.735700 0.000005 -0.000001 75.091600 82.578800 -73.873900 8.984550 -0.406207 -0.000000 6.629890 -3.818760 2.654620 16.377300 -0.000001 -0.000001 28.030600 -9.760810 -4.021510 6.456720 -0.000001 -0.000000 18.032400 -11.921000 -6.316570 12.994200 -0.242716 4.980390 -87.401500 -6.306610 -67.552500 5.348090 -0.000007 -0.000001 -20.404600 -33.742700 -86.878900 24.328600 0.000019 0.000005 17.869400 15.336800 -50.634900 22.291600 -0.000001 0.000005 17.864400 5.350390 -1.389080 12.994500 -0.242716 -4.980390 88.546700 7.708030 -79.289100 -5.348130 -0.000001 -0.000004 -64.757500 35.453300 -9.529090 -24.328900 0.000322 -0.000009 1.317410 4.020990 -18.172300 -22.291500 -0.000108 -0.000004 12.766600 5.390970 -2.646490 -2.192480 -6.469440 -0.000000 -173.263000 -9.149250 5.077950 39.081100 -0.000007 -0.000012 -0.206383 0.359828 29.837200 40.985400 -0.000006 -0.000013 -1.702900 7.377280 -71.650000 11.754300 -0.000000 0.000003 -0.000061 -0.000671 -16.603500 -2.192510 6.469440 -0.000001 172.759000 20.757200 -172.901000 -39.081100 -0.002282 -0.040193 -0.203802 0.351527 30.504800 -40.985400 0.000008 0.000006 3.879310 9.719310 -74.269700 -11.754300 -0.000006 -0.000006 -0.002821 -0.038562 -18.141300
0.000000 0.000000 0.000000 0.000000 0.000000 -0.000000 -3.729430 90.321600 3.377960 90.654700 -0.660077 12.685200 15.735700 0.000005 -0.000001 74.595900 82.607600 -73.310000 8.984550 -0.406207 -0.000000 6.545010 -3.928950 2.794320 16.377300 -0.000001 -0.000001 28.140700 -10.158800 -3.667900 6.456720 -0.000001 -0.000000 18.223300 -12.297300 -5.872280 12.994200 -0.242716 4.980390 -87.526300 -6.031500 -67.650500 5.348090 -0.000007 -0.000001 -19.178900 -34.661700 -82.639000 24.328600 0.000019 0.000005 17.178000 15.842200 -48.552500 22.291600 -0.000001 0.000005 17.861900 5.348050 -1.318940 12.994500 -0.242716 -4.980390 88.498000 7.741300 -78.984900 -5.348130 -0.000001 -0.000004 -64.398700 34.073400 -8.968060 -24.328900 0.000322 -0.000009 1.380100 4.502310 -17.075100 -22.291500 -0.000108 -0.000004 12.695200 5.382650 -2.381930 -2.192480 -6.469440 -0.000000 -172.905000 -9.914330 5.308450 39.081100 -0.000007 -0.000012 -0.212037 0.369941 29.820200 40.985400 -0.000006 -0.000013 -1.881810 6.970290 -71.877300 11.754300 -0.000000 0.000003 -0.000061 -0.000675 -16.603700 -2.192510 6.469440 -0.000001 173.174000 19.922400 -173.154000 -39.081100 -0.002282 -0.040193 -0.201907 0.347777 30.543200 -40.985400 0.000008 0.000006 4.023390 10.052400 -74.342000 -11.754300 -0.000006 -0.000006 -0.002955 -0.040087 -18.203400
0.000000 0.000000 0.000000 0.000000 0.000000 -0.000000 -3.774300 90.301500 3.516660 90.524600 -1.944560 12.588700 15.735700 0.000005 -0.000001 74.167200 82.611200 -72.823500 8.984550 -0.406207 -0.000000 6.512250 -4.034300 2.914910 16.377300 -0.000001 -0.000001 28.273600 -10.454600 -3.164270 6.456720 -0.000001 -0.000000 18.469900 -12.723700 -5.383550 12.994200 -0.242716 4.980390 -87.595500 -5.867610 -67.669600 5.348090 -0.000007 -0.000001 -18.352800 -35.438400 -78.382400 24.328600 0.000019 0.000005 16.204700 16.182000 -46.200300 22.291600 -0.000001 0.000005 17.923700 5.342260 -1.146340 12.994500 -0.242716 -4.980390 88.458200 7.777740 -78.751200 -5.348130 -0.000001 -0.000004 -63.976300 32.579900 -8.420110 -24.328900 0.000322 -0.000009 1.396870 4.849300 -16.102200 -22.291500 -0.000108 -0.000004 12.851900 5.381030 -2.330710 -2.192480 -6.469440 -0.000000 -172.608000 -10.594400 5.567680 39.081100 -0.000007 -0.000012 -0.214473 0.374729 29.784700 40.985400 -0.000006 -0.000013 -2.079560 6.441430 -72.080200 11.754300 -0.000000 0.000003 -0.000062 -0.000683 -16.604000 -2.192510 6.469440 -0.000001 173.576000 19.023100 -173.380000 -39.081100 -0.002282 -0.040193 -0.203223 0.349563 30.575100 -40.985400 0.000008 0.000006 4.146550 10.335100 -74.386100 -11.754300 -0.000006 -0.000006 -0.002884 -0.039279 -18.170500
0.000000 0.000000 0.000000 0.000000 0.000000 -0.000000 -3.814520 90.273400 3.663720 90.377300 -3.141170 12.468100 15.735700 0.000005 -0.000001 73.934100 82.619000 -72.519900 8.984550 -0.406207 -0.000000 6.484260 -4.088810 3.057990 16.377300 -0.000001 -0.000001 28.444300 -10.801200 -2.596500 6.456720 -0.000001 -0.000000 18.784700 -13.225000 -4.668020 12.994200 -0.242716 4.980390 -87.652700 -5.741450 -67.719000 5.348090 -0.000007 -0.000001 -18.416300 -36.148500 -74.525000 24.328600 0.000019 0.000005 15.905300 17.199600 -43.940400 22.291600 -0.000001 0.000005 17.877900 5.328270 -0.734933 12.994500 -0.242716 -4.980390 88.420400 7.792740 -78.504100 -5.348130 -0.000001 -0.000004 -63.424900 31.212000 -7.849320 -24.328900 0.000322 -0.000009 1.395580 5.066940 -15.432200 -22.291500 -0.000108 -0.000004 13.014200 5.377200 -2.210750 -2.192480 -6.469440 -0.000000 -172.313000 -11.216900 5.771800 39.081100 -0.000007 -0.000012 -0.217482 0.379717 29.802100 40.985400 -0.000006 -0.000013 -2.257180 5.967340 -72.309000 11.754300 -0.000000 0.000003 -0.000065 -0.000710 -16.605000 -2.192510 6.469440 -0.000001 173.961000 18.245100 -173.608000 -39.081100 -0.002282 -0.040193 -0.201624 0.346090 30.630700 -40.985400 0.000008 0.000006 4.273630 10.624800 -74.452800 -11.754300 -0.000006 -0.000006 -0.003084 -0.041549 -18.262900
0.000000 0.000000 0.000000 0.000000 0.000000 -0.000000 -3.847410 90.258400 3.781470 90.257000 -4.276460 12.354800 15.735700 0.000005 -0.000001 73.902900 82.632200 -72.411100 8.984550 -0.406207 -0.000000 6.459590 -4.090500 3.212160 16.377300 -0.000001 -0.000001 28.771900 -11.202200 -1.878310 6.456720 -0.000001 -0.000000 18.984500 -13.698500 -3.976240 12.994200 -0.242716 4.980390 -87.701500 -5.658240 -67.848200 5.348090 -0.000007 -0.000001 -19.510600 -36.878100 -71.128600 24.328600 0.000019 0.000005 15.624900 18.289800 -41.707400 22.291600 -0.000001 0.000005 17.755500 5.314550 -0.338185 12.994500 -0.242716 -4.980390 88.392200 7.788050 -78.297500 -5.348130 -0.000001 -0.000004 -62.760200 30.040400 -7.298220 -24.328900 0.000322 -0.000009 1.402460 5.258230 -14.967600 -22.291500 -0.000108 -0.000004 13.119400 5.368500 -1.940030 -2.192480 -6.469440 -0.000000 -172.073000 -11.773000 5.986450 39.081100 -0.000007 -0.000012 -0.219544 0.384096 29.752100 40.985400 -0.000006 -0.000013 -2.442400 5.471430 -72.479600 11.754300 -0.000000 0.000003 -0.000070 -0.000761 -16.606900 -2.192510 6.469440 -0.000001 174.332000 17.404600 -173.826000 -39.081100 -0.002282 -0.040193 -0.199478 0.342204 30.649800 -40.985400 0.000008 0.000006 4.376890 10.860400 -74.479800 -11.754300 -0.000006 -0.000006 -0.002900 -0.039465 -18.178100
